<?xml version="1.0" encoding="utf-8"?>
<!-- Generator: Adobe Illustrator 16.0.0, SVG Export Plug-In . SVG Version: 6.00 Build 0)  -->
<!DOCTYPE svg PUBLIC "-//W3C//DTD SVG 1.1//EN" "http://www.w3.org/Graphics/SVG/1.1/DTD/svg11.dtd">
<svg version="1.1" id="Слой_1" xmlns="http://www.w3.org/2000/svg" xmlns:xlink="http://www.w3.org/1999/xlink" x="0px" y="0px"
	 width="1867.547px" height="1326.202px" viewBox="-139.18 0 1867.547 1326.202"
	 enable-background="new -139.18 0 1867.547 1326.202" xml:space="preserve">
<linearGradient id="SVGID_1_" gradientUnits="userSpaceOnUse" x1="1271.5103" y1="325.6475" x2="1271.5103" y2="579.334" gradientTransform="matrix(-1 0 0 -1 2096.9971 1066.7432)">
	<stop  offset="0.65" style="stop-color:#C52AD7;stop-opacity:0.1"/>
	<stop  offset="1" style="stop-color:#C227D9;stop-opacity:0.4"/>
</linearGradient>
<polygon fill="url(#SVGID_1_)" points="729.707,741.096 1042.336,560.596 924.09,487.41 608.638,667.334 "/>
<linearGradient id="SVGID_2_" gradientUnits="userSpaceOnUse" x1="651.6943" y1="300.2803" x2="651.6943" y2="651.0605" gradientTransform="matrix(1 0 0 -1 259.04 1066.7432)">
	<stop  offset="0.5" style="stop-color:#C52AD7;stop-opacity:0.0618"/>
	<stop  offset="0.91" style="stop-color:#C227D9;stop-opacity:0.3"/>
	<stop  offset="0.956" style="stop-color:#E062D5;stop-opacity:0.7028"/>
	<stop  offset="0.99" style="stop-color:#F48AD2"/>
</linearGradient>
<polygon fill="url(#SVGID_2_)" points="818.633,766.463 612.292,648.813 1006.129,415.683 1209.176,523.71 "/>
<linearGradient id="SVGID_3_" gradientUnits="userSpaceOnUse" x1="645.2813" y1="165.9873" x2="645.2813" y2="514.5029" gradientTransform="matrix(1 0 0 -1 259.04 1066.7432)">
	<stop  offset="0.5" style="stop-color:#C52AD7;stop-opacity:0.0618"/>
	<stop  offset="0.8" style="stop-color:#C227D9;stop-opacity:0.4"/>
</linearGradient>
<polygon fill="url(#SVGID_3_)" points="818.633,900.756 613.046,778.581 1005.375,552.241 1195.596,667.061 "/>
<linearGradient id="SVGID_4_" gradientUnits="userSpaceOnUse" x1="556.3452" y1="312.3506" x2="556.3452" y2="663.1318" gradientTransform="matrix(-1 0 0 -1 1215.4658 1066.7432)">
	<stop  offset="0.295" style="stop-color:#C52AD7;stop-opacity:0"/>
	<stop  offset="1" style="stop-color:#C227D9;stop-opacity:0.2"/>
</linearGradient>
<polygon fill="url(#SVGID_4_)" points="747.071,754.393 949.641,635.233 564.101,403.612 368.6,516.92 "/>
<linearGradient id="SVGID_5_" gradientUnits="userSpaceOnUse" x1="534.6479" y1="659.3599" x2="534.6479" y2="391.5239" gradientTransform="matrix(1 0 0 -1 259.04 1066.7432)">
	<stop  offset="0.4" style="stop-color:#C52AD7;stop-opacity:0"/>
	<stop  offset="0.8" style="stop-color:#C227D9"/>
	<stop  offset="0.8606" style="stop-color:#D874E7"/>
	<stop  offset="0.943" style="stop-color:#F4D7F8"/>
	<stop  offset="0.98" style="stop-color:#FFFFFF"/>
</linearGradient>
<polygon fill="url(#SVGID_5_)" points="904.188,611.088 792.179,675.219 683.188,611.088 683.188,476.04 793.688,407.384 
	904.188,476.04 "/>
<linearGradient id="SVGID_6_" gradientUnits="userSpaceOnUse" x1="-991.6138" y1="952.9819" x2="-991.6138" y2="1496.9038" gradientTransform="matrix(1 0 0 -1 259.04 1066.7432)">
	<stop  offset="0.295" style="stop-color:#C52AD7;stop-opacity:0.0618"/>
	<stop  offset="1" style="stop-color:#C227D9;stop-opacity:0.3"/>
</linearGradient>
<polygon fill="url(#SVGID_6_)" points="-584.321,113.761 -1126.128,-256.316 -992.755,-430.161 -339.019,-40.844 "/>
<linearGradient id="SVGID_7_" gradientUnits="userSpaceOnUse" x1="536.1011" y1="485.6694" x2="536.1011" y2="355.1958" gradientTransform="matrix(1 0 0 -1 259.04 1066.7432)">
	<stop  offset="0.5" style="stop-color:#C52AD7;stop-opacity:0.0618"/>
	<stop  offset="0.745" style="stop-color:#C227D9;stop-opacity:0.3"/>
	<stop  offset="0.886" style="stop-color:#E062D5;stop-opacity:0.7028"/>
	<stop  offset="0.99" style="stop-color:#F48AD2"/>
</linearGradient>
<polygon fill="url(#SVGID_7_)" points="794.051,711.547 685.155,648.797 793.467,581.074 905.127,646.491 "/>
<linearGradient id="SVGID_8_" gradientUnits="userSpaceOnUse" x1="536.1011" y1="441.1563" x2="536.1011" y2="310.6797" gradientTransform="matrix(1 0 0 -1 259.04 1066.7432)">
	<stop  offset="0.295" style="stop-color:#C52AD7;stop-opacity:0"/>
	<stop  offset="1" style="stop-color:#C227D9;stop-opacity:0.2"/>
</linearGradient>
<polygon fill="url(#SVGID_8_)" points="794.051,756.063 685.155,693.311 793.467,625.586 905.127,691.004 "/>
<linearGradient id="SVGID_9_" gradientUnits="userSpaceOnUse" x1="-352.8989" y1="-74.7783" x2="-352.899" y2="735.208" gradientTransform="matrix(1 0 0 -1 259.04 1066.7432)">
	<stop  offset="0.295" style="stop-color:#C52AD7;stop-opacity:0"/>
	<stop  offset="1" style="stop-color:#C227D9;stop-opacity:0.2"/>
</linearGradient>
<polygon fill="url(#SVGID_9_)" points="-269.225,1141.522 -741,782.868 70.563,331.536 553.282,632.663 "/>
<linearGradient id="SVGID_10_" gradientUnits="userSpaceOnUse" x1="1030.2397" y1="542.1792" x2="1030.2397" y2="619.0552" gradientTransform="matrix(-1 0 0 -1 2096.9971 1066.7432)">
	<stop  offset="0.4" style="stop-color:#C52AD7;stop-opacity:0"/>
	<stop  offset="0.8" style="stop-color:#C227D9"/>
	<stop  offset="0.8606" style="stop-color:#D874E7"/>
	<stop  offset="0.943" style="stop-color:#F4D7F8"/>
	<stop  offset="0.98" style="stop-color:#FFFFFF"/>
</linearGradient>
<polygon fill="url(#SVGID_10_)" points="1044.208,524.564 1132.118,473.566 1090.305,447.688 1001.397,498.483 "/>
<linearGradient id="SVGID_11_" gradientUnits="userSpaceOnUse" x1="1572.6919" y1="568.2798" x2="1572.6919" y2="652.5698" gradientTransform="matrix(-1 0 0 -1 2096.9971 1066.7432)">
	<stop  offset="0.4" style="stop-color:#C52AD7;stop-opacity:0"/>
	<stop  offset="0.8" style="stop-color:#C227D9"/>
	<stop  offset="0.8606" style="stop-color:#D874E7"/>
	<stop  offset="0.943" style="stop-color:#F4D7F8"/>
	<stop  offset="0.98" style="stop-color:#FFFFFF"/>
</linearGradient>
<polygon fill="url(#SVGID_11_)" points="555.243,448.125 555.422,498.463 493.188,463.969 493.188,414.174 "/>
<linearGradient id="SVGID_12_" gradientUnits="userSpaceOnUse" x1="1572.6919" y1="478.5" x2="1572.6919" y2="562.7891" gradientTransform="matrix(-1 0 0 -1 2096.9971 1066.7432)">
	<stop  offset="0.5" style="stop-color:#C52AD7;stop-opacity:0.0618"/>
	<stop  offset="0.745" style="stop-color:#C227D9;stop-opacity:0.3"/>
	<stop  offset="0.886" style="stop-color:#E062D5;stop-opacity:0.7028"/>
	<stop  offset="0.99" style="stop-color:#F48AD2"/>
</linearGradient>
<polygon fill="url(#SVGID_12_)" points="555.243,537.906 555.422,588.244 493.188,553.749 493.188,503.955 "/>
<linearGradient id="SVGID_13_" gradientUnits="userSpaceOnUse" x1="1030.2397" y1="511.2466" x2="1030.2397" y2="588.1235" gradientTransform="matrix(-1 0 0 -1 2096.9971 1066.7432)">
	<stop  offset="0.295" style="stop-color:#C52AD7;stop-opacity:0.0618"/>
	<stop  offset="1" style="stop-color:#C227D9;stop-opacity:0.4"/>
</linearGradient>
<polygon fill="url(#SVGID_13_)" points="1044.208,555.497 1132.118,504.499 1090.305,478.621 1001.397,529.416 "/>
<linearGradient id="SVGID_14_" gradientUnits="userSpaceOnUse" x1="1030.2397" y1="484.8394" x2="1030.2397" y2="561.7153" gradientTransform="matrix(-1 0 0 -1 2096.9971 1066.7432)">
	<stop  offset="0.295" style="stop-color:#C52AD7;stop-opacity:0.0618"/>
	<stop  offset="1" style="stop-color:#C227D9;stop-opacity:0.4"/>
</linearGradient>
<polygon fill="url(#SVGID_14_)" points="1044.208,581.904 1132.118,530.905 1090.305,505.028 1001.397,555.822 "/>
<linearGradient id="SVGID_15_" gradientUnits="userSpaceOnUse" x1="800.5181" y1="448.9111" x2="800.5181" y2="468.3408" gradientTransform="matrix(1 0 0 -1 259.04 1066.7432)">
	<stop  offset="0.4" style="stop-color:#C52AD7;stop-opacity:0"/>
	<stop  offset="0.8" style="stop-color:#C227D9"/>
	<stop  offset="0.8606" style="stop-color:#D874E7"/>
	<stop  offset="0.943" style="stop-color:#F4D7F8"/>
	<stop  offset="0.98" style="stop-color:#FFFFFF"/>
</linearGradient>
<ellipse fill="url(#SVGID_15_)" cx="1059.557" cy="608.118" rx="17.117" ry="9.715"/>
<linearGradient id="SVGID_16_" gradientUnits="userSpaceOnUse" x1="109.5166" y1="549.5112" x2="109.5166" y2="493.2456" gradientTransform="matrix(1 0 0 -1 259.04 1066.7432)">
	<stop  offset="0.5" style="stop-color:#C52AD7;stop-opacity:0.0618"/>
	<stop  offset="0.91" style="stop-color:#C227D9;stop-opacity:0.3"/>
	<stop  offset="0.956" style="stop-color:#E062D5;stop-opacity:0.7028"/>
	<stop  offset="0.99" style="stop-color:#F48AD2"/>
</linearGradient>
<path fill="url(#SVGID_16_)" d="M418.123,545.366c0,15.535-22.19,28.132-49.568,28.132c-27.375,0-49.565-12.597-49.565-28.132
	c0-15.537,22.19-28.134,49.565-28.134C395.933,517.233,418.123,529.829,418.123,545.366z"/>
<linearGradient id="SVGID_17_" gradientUnits="userSpaceOnUse" x1="109.5166" y1="577.4771" x2="109.5166" y2="521.2134" gradientTransform="matrix(1 0 0 -1 259.04 1066.7432)">
	<stop  offset="0.5" style="stop-color:#C52AD7;stop-opacity:0.0618"/>
	<stop  offset="0.91" style="stop-color:#C227D9;stop-opacity:0.3"/>
	<stop  offset="0.956" style="stop-color:#E062D5;stop-opacity:0.7028"/>
	<stop  offset="0.99" style="stop-color:#F48AD2"/>
</linearGradient>
<path fill="url(#SVGID_17_)" d="M418.123,517.397c0,15.536-22.19,28.133-49.568,28.133c-27.375,0-49.565-12.597-49.565-28.133
	s22.19-28.131,49.565-28.131C395.933,489.266,418.123,501.861,418.123,517.397z"/>
<linearGradient id="SVGID_18_" gradientUnits="userSpaceOnUse" x1="109.5166" y1="605.8071" x2="109.5166" y2="549.5435" gradientTransform="matrix(1 0 0 -1 259.04 1066.7432)">
	<stop  offset="0.5" style="stop-color:#C52AD7;stop-opacity:0.0618"/>
	<stop  offset="0.91" style="stop-color:#C227D9;stop-opacity:0.3"/>
	<stop  offset="0.956" style="stop-color:#E062D5;stop-opacity:0.7028"/>
	<stop  offset="0.99" style="stop-color:#F48AD2"/>
</linearGradient>
<path fill="url(#SVGID_18_)" d="M418.123,489.067c0,15.536-22.19,28.133-49.568,28.133c-27.375,0-49.565-12.597-49.565-28.133
	s22.19-28.131,49.565-28.131C395.933,460.936,418.123,473.53,418.123,489.067z"/>
<linearGradient id="SVGID_19_" gradientUnits="userSpaceOnUse" x1="936.5161" y1="328.8066" x2="936.5161" y2="272.543" gradientTransform="matrix(1 0 0 -1 259.04 1066.7432)">
	<stop  offset="0.5" style="stop-color:#C52AD7;stop-opacity:0.0618"/>
	<stop  offset="0.91" style="stop-color:#C227D9;stop-opacity:0.3"/>
	<stop  offset="0.956" style="stop-color:#E062D5;stop-opacity:0.7028"/>
	<stop  offset="0.99" style="stop-color:#F48AD2"/>
</linearGradient>
<path fill="url(#SVGID_19_)" d="M1245.124,766.067c0,15.537-22.191,28.133-49.568,28.133c-27.375,0-49.564-12.596-49.564-28.133
	c0-15.535,22.189-28.131,49.564-28.131C1222.932,737.936,1245.124,750.53,1245.124,766.067z"/>
<ellipse fill="none" stroke="#FFFFFF" stroke-linecap="round" stroke-miterlimit="10" cx="1085.686" cy="466.041" rx="10.051" ry="5.704"/>
<path fill="none" stroke="#F48AD2" stroke-linecap="round" stroke-miterlimit="10" d="M1159.458,0
	c0,14.96-21.367,27.089-47.732,27.089C1085.368,27.089,1064,14.96,1064,0c0-14.959,21.367-27.088,47.725-27.088
	C1138.09-27.089,1159.458-14.96,1159.458,0z"/>
<linearGradient id="SVGID_20_" gradientUnits="userSpaceOnUse" x1="675.6865" y1="403.3584" x2="675.6865" y2="493.0605" gradientTransform="matrix(1 0 0 -1 259.04 1066.7432)">
	<stop  offset="0.4" style="stop-color:#C52AD7;stop-opacity:0"/>
	<stop  offset="0.8" style="stop-color:#C227D9"/>
	<stop  offset="0.8606" style="stop-color:#D874E7"/>
	<stop  offset="0.943" style="stop-color:#F4D7F8"/>
	<stop  offset="0.98" style="stop-color:#FFFFFF"/>
</linearGradient>
<polygon fill="url(#SVGID_20_)" points="900.86,663.385 1011.403,599.562 969.592,573.683 858.049,637.305 "/>
<linearGradient id="SVGID_21_" gradientUnits="userSpaceOnUse" x1="599.0093" y1="417.2759" x2="752.3628" y2="417.2759" gradientTransform="matrix(1 0 0 -1 259.04 1066.7432)">
	<stop  offset="0.295" style="stop-color:#C52AD7;stop-opacity:0.0618"/>
	<stop  offset="1" style="stop-color:#C227D9;stop-opacity:0.4"/>
</linearGradient>
<polygon fill="url(#SVGID_21_)" points="900.86,694.319 1011.403,630.495 969.592,604.616 858.049,668.239 "/>
<line fill="none" stroke="#BF26D8" stroke-linecap="round" stroke-miterlimit="10" x1="554.688" y1="498.536" x2="554.688" y2="448.536"/>
<path fill="none" stroke="#E22F61" stroke-linecap="round" stroke-miterlimit="10" d="M1017.165,660.129"/>
<path fill="none" stroke="#E22F61" stroke-linecap="round" stroke-miterlimit="10" d="M1002.077,654.094"/>
<linearGradient id="SVGID_22_" gradientUnits="userSpaceOnUse" x1="730.6475" y1="940.8052" x2="730.6475" y2="1105.4243" gradientTransform="matrix(-1 0 0 -1 2096.9971 1066.7432)">
	<stop  offset="0.5" style="stop-color:#C52AD7;stop-opacity:0.0618"/>
	<stop  offset="0.91" style="stop-color:#C227D9;stop-opacity:0.3"/>
	<stop  offset="0.956" style="stop-color:#E062D5;stop-opacity:0.7028"/>
	<stop  offset="0.99" style="stop-color:#F48AD2"/>
</linearGradient>
<polygon fill="url(#SVGID_22_)" points="1303.438,125.939 1507.534,7.823 1428.672,-38.681 1225.165,78.252 "/>
<linearGradient id="SVGID_23_" gradientUnits="userSpaceOnUse" x1="1060.7397" y1="433.4155" x2="1078.5591" y2="402.5515" gradientTransform="matrix(-1 0 0 -1 2096.9971 1066.7432)">
	<stop  offset="0.4" style="stop-color:#C52AD7;stop-opacity:0"/>
	<stop  offset="0.8" style="stop-color:#C227D9"/>
	<stop  offset="0.8606" style="stop-color:#D874E7"/>
	<stop  offset="0.943" style="stop-color:#F4D7F8"/>
	<stop  offset="0.98" style="stop-color:#FFFFFF"/>
</linearGradient>
<polygon fill="url(#SVGID_23_)" points="1017.165,661.827 1052.625,642.778 1037.907,635.575 1002.069,654.741 "/>
<linearGradient id="SVGID_24_" gradientUnits="userSpaceOnUse" x1="1048.9028" y1="423.7783" x2="1048.9028" y2="442.4834" gradientTransform="matrix(-1 0 0 -1 2096.9971 1066.7432)">
	<stop  offset="0.2" style="stop-color:#C52AD7;stop-opacity:0.2"/>
	<stop  offset="1" style="stop-color:#C227D9"/>
</linearGradient>
<polygon fill="url(#SVGID_24_)" points="1053.379,642.965 1057.907,630.706 1043.188,624.26 1038.282,635.879 "/>
<linearGradient id="SVGID_25_" gradientUnits="userSpaceOnUse" x1="65.1313" y1="459.0527" x2="73.228" y2="445.0289" gradientTransform="matrix(1 0 0 -1 1010.6357 1066.7432)">
	<stop  offset="0.2" style="stop-color:#C52AD7;stop-opacity:0.2"/>
	<stop  offset="1" style="stop-color:#C227D9"/>
</linearGradient>
<polygon fill="url(#SVGID_25_)" points="1091.102,617.536 1077.428,617.536 1068.526,611.872 1075.25,611.29 "/>
<linearGradient id="SVGID_26_" gradientUnits="userSpaceOnUse" x1="983.605" y1="480.9614" x2="1004.0524" y2="445.5453" gradientTransform="matrix(-1 0 0 -1 2096.9971 1066.7432)">
	<stop  offset="0.4" style="stop-color:#C52AD7;stop-opacity:0"/>
	<stop  offset="0.8" style="stop-color:#C227D9"/>
	<stop  offset="0.8606" style="stop-color:#D874E7"/>
	<stop  offset="0.943" style="stop-color:#F4D7F8"/>
	<stop  offset="0.98" style="stop-color:#FFFFFF"/>
</linearGradient>
<polygon fill="url(#SVGID_26_)" points="1091.102,617.124 1131.088,595.999 1116.372,589.553 1075.25,610.983 "/>
<linearGradient id="SVGID_27_" gradientUnits="userSpaceOnUse" x1="1381.2134" y1="677.1821" x2="1381.2134" y2="590.6079" gradientTransform="matrix(-1 0 0 -1 2096.9971 1066.7432)">
	<stop  offset="0.2" style="stop-color:#C52AD7;stop-opacity:0.2"/>
	<stop  offset="0.74" style="stop-color:#C227D9"/>
	<stop  offset="0.8665" style="stop-color:#DB59D5"/>
	<stop  offset="1" style="stop-color:#F48AD2"/>
</linearGradient>
<polygon fill="url(#SVGID_27_)" points="683.002,476.134 791.375,415.439 749.563,389.561 640.193,450.052 "/>
<linearGradient id="SVGID_28_" gradientUnits="userSpaceOnUse" x1="383.4414" y1="545.1763" x2="536.7944" y2="545.1763" gradientTransform="matrix(1 0 0 -1 259.04 1066.7432)">
	<stop  offset="0.2" style="stop-color:#C52AD7;stop-opacity:0.2"/>
	<stop  offset="0.74" style="stop-color:#C227D9"/>
	<stop  offset="0.8665" style="stop-color:#DB59D5"/>
	<stop  offset="1" style="stop-color:#F48AD2"/>
</linearGradient>
<polygon fill="url(#SVGID_28_)" points="753.025,566.417 642.481,502.594 684.293,476.716 795.834,540.335 "/>
<linearGradient id="SVGID_29_" gradientUnits="userSpaceOnUse" x1="610.0947" y1="674.3286" x2="610.0947" y2="590.3853" gradientTransform="matrix(1 0 0 -1 259.04 1066.7432)">
	<stop  offset="0.2" style="stop-color:#C52AD7;stop-opacity:0.2"/>
	<stop  offset="0.74" style="stop-color:#C227D9"/>
	<stop  offset="0.8665" style="stop-color:#DB59D5"/>
	<stop  offset="1" style="stop-color:#F48AD2"/>
</linearGradient>
<polygon fill="url(#SVGID_29_)" points="905.053,476.358 791.508,415.535 832.561,392.415 946.762,451.678 "/>
<line fill="none" stroke="#BF26D8" stroke-linecap="round" stroke-miterlimit="10" x1="1017.165" y1="661.827" x2="1002.823" y2="654.741"/>
<line fill="none" stroke="#FFFFFF" stroke-linecap="round" stroke-miterlimit="10" x1="1011.202" y1="599.456" x2="969.348" y2="573.353"/>
<line fill="none" stroke="#FFFFFF" stroke-linecap="round" stroke-miterlimit="10" x1="960.729" y1="628.274" x2="928.516" y2="608.118"/>
<line fill="none" stroke="#F48AD2" stroke-linecap="round" stroke-miterlimit="10" x1="658.792" y1="1374.223" x2="877.409" y2="1237.215"/>
<line fill="none" stroke="#FFFFFF" stroke-linecap="round" stroke-miterlimit="10" x1="901.241" y1="662.977" x2="857.879" y2="636.118"/>
<line fill="none" stroke="#FFFFFF" stroke-linecap="round" stroke-miterlimit="10" x1="1011.403" y1="599.562" x2="901.241" y2="662.977"/>
<line fill="none" stroke="#BF26D8" stroke-linecap="round" stroke-miterlimit="10" x1="1602.737" y1="816.114" x2="1391.186" y2="688.405"/>
<line fill="none" stroke="#FFFFFF" stroke-linecap="round" stroke-miterlimit="10" x1="1025.147" y1="497.613" x2="1047.584" y2="484.938"/>
<line fill="none" stroke="#FFFFFF" stroke-linecap="round" stroke-miterlimit="10" x1="1042.5" y1="508.175" x2="1064.938" y2="495.5"/>
<line fill="none" stroke="#FFFFFF" stroke-linecap="round" stroke-miterlimit="10" x1="1033.448" y1="502.894" x2="1075.448" y2="478.869"/>
<line fill="none" stroke="#BF26D8" stroke-linecap="round" stroke-miterlimit="10" x1="1044.59" y1="524.154" x2="1000.473" y2="498.052"/>
<line fill="none" stroke="#BF26D8" stroke-linecap="round" stroke-miterlimit="10" x1="93.066" y1="732.872" x2="-17.857" y2="668.28"/>
<line fill="none" stroke="#BF26D8" stroke-linecap="round" stroke-miterlimit="10" x1="-129.065" y1="1077.977" x2="-58.652" y2="1031.657"/>
<line fill="none" stroke="#BF26D8" stroke-linecap="round" stroke-miterlimit="10" x1="331.686" y1="56.714" x2="230.535" y2="-2.536"/>
<line fill="none" stroke="#FFFFFF" stroke-linecap="round" stroke-miterlimit="10" x1="543.468" y1="455.246" x2="502.289" y2="433.246"/>
<line fill="none" stroke="#FFFFFF" stroke-linecap="round" stroke-miterlimit="10" x1="522.798" y1="454.582" x2="502.289" y2="443.625"/>
<path fill="none" stroke="#BF26D8" stroke-linecap="round" stroke-miterlimit="10" d="M793.844,312.322"/>
<linearGradient id="SVGID_30_" gradientUnits="userSpaceOnUse" x1="534.7861" y1="545.3423" x2="689.2183" y2="545.3423" gradientTransform="matrix(1 0 0 -1 259.04 1066.7432)">
	<stop  offset="0.2" style="stop-color:#C52AD7;stop-opacity:0.2"/>
	<stop  offset="0.74" style="stop-color:#C227D9"/>
	<stop  offset="0.8665" style="stop-color:#DB59D5"/>
	<stop  offset="1" style="stop-color:#F48AD2"/>
</linearGradient>
<polygon fill="url(#SVGID_30_)" points="836.635,566.417 948.258,501.818 905.127,476.384 793.826,540.335 "/>
<ellipse fill="none" stroke="#FFFFFF" stroke-linecap="round" stroke-miterlimit="10" cx="1060.311" cy="620.191" rx="17.117" ry="9.716"/>
<line fill="none" stroke="#FFFFFF" stroke-linecap="round" stroke-miterlimit="10" x1="1059.854" y1="621.334" x2="1051.686" y2="617.95"/>
<line fill="none" stroke="#FFFFFF" stroke-linecap="round" stroke-miterlimit="10" x1="1059.229" y1="621.334" x2="1067.401" y2="617.95"/>
<line fill="none" stroke="#FFFFFF" stroke-linecap="round" stroke-miterlimit="10" x1="932.856" y1="644.272" x2="906.854" y2="628.596"/>
<line fill="none" stroke="#BF26D8" stroke-linecap="round" stroke-miterlimit="10" x1="836.288" y1="566.562" x2="795.834" y2="540.546"/>
<line fill="none" stroke="#FFFFFF" stroke-linecap="round" stroke-miterlimit="10" x1="987.18" y1="613.336" x2="961.174" y2="597.662"/>
</svg>
