<?xml version="1.0" encoding="utf-8"?>
<!-- Generator: Adobe Illustrator 16.0.0, SVG Export Plug-In . SVG Version: 6.00 Build 0)  -->
<!DOCTYPE svg PUBLIC "-//W3C//DTD SVG 1.1//EN" "http://www.w3.org/Graphics/SVG/1.1/DTD/svg11.dtd">
<svg version="1.1" id="Слой_1" xmlns="http://www.w3.org/2000/svg" xmlns:xlink="http://www.w3.org/1999/xlink" x="0px" y="0px"
	 width="1589.188px" height="564.839px" viewBox="0 0 1589.188 564.839" enable-background="new 0 0 1589.188 564.839"
	 xml:space="preserve">
<linearGradient id="SVGID_1_" gradientUnits="userSpaceOnUse" x1="1232.1875" y1="76.8477" x2="1232.1875" y2="173.8389">
	<stop  offset="0" style="stop-color:#F48AD2;stop-opacity:0"/>
	<stop  offset="1" style="stop-color:#C227D9"/>
</linearGradient>
<polygon fill="url(#SVGID_1_)" points="1257.188,153.358 1219.945,173.839 1207.188,164.83 1207.188,83.73 1221.099,90.992 
	1257.188,76.848 "/>
<linearGradient id="SVGID_2_" gradientUnits="userSpaceOnUse" x1="239.957" y1="319.8477" x2="239.957" y2="469.8389" gradientTransform="matrix(-1 0 0 1 466.1445 0)">
	<stop  offset="0" style="stop-color:#F48AD2;stop-opacity:0"/>
	<stop  offset="1" style="stop-color:#C227D9"/>
</linearGradient>
<polygon fill="url(#SVGID_2_)" points="157.188,396.359 287.43,469.839 295.188,465.83 295.188,384.73 286.276,386.992 
	157.188,319.847 "/>
<path fill="none" stroke="#BF26D8" stroke-linecap="round" stroke-miterlimit="10" d="M767.5,443"/>
<line fill="none" stroke="#F48AD2" stroke-linecap="round" stroke-miterlimit="10" x1="1324.841" y1="326.437" x2="1421.334" y2="269.333"/>
<line fill="none" stroke="#FFFFFF" stroke-linecap="round" stroke-miterlimit="10" x1="234.723" y1="409.572" x2="170.841" y2="376.333"/>
<line fill="none" stroke="#FFFFFF" stroke-linecap="round" stroke-miterlimit="10" x1="210" y1="382.667" x2="170.841" y2="362.333"/>
<line fill="none" stroke="#FFFFFF" stroke-linecap="round" stroke-miterlimit="10" x1="270.215" y1="399.505" x2="245.5" y2="386"/>
<line fill="none" stroke="#FFFFFF" stroke-linecap="round" stroke-miterlimit="10" x1="270.215" y1="430.228" x2="245.5" y2="416.792"/>
<linearGradient id="SVGID_3_" gradientUnits="userSpaceOnUse" x1="1323.1875" y1="279.8394" x2="1323.1875" y2="49.8394">
	<stop  offset="0.2" style="stop-color:#C52AD7;stop-opacity:0.1"/>
	<stop  offset="1" style="stop-color:#C227D9;stop-opacity:0.8"/>
</linearGradient>
<line fill="none" stroke="url(#SVGID_3_)" stroke-width="14" stroke-linecap="round" stroke-miterlimit="10" x1="1323.188" y1="56.839" x2="1323.188" y2="272.839"/>
<linearGradient id="SVGID_4_" gradientUnits="userSpaceOnUse" x1="247.957" y1="552.8403" x2="247.957" y2="421.8394" gradientTransform="matrix(-1 0 0 1 466.1445 0)">
	<stop  offset="0.2" style="stop-color:#C52AD7;stop-opacity:0.1"/>
	<stop  offset="1" style="stop-color:#C227D9;stop-opacity:0.8"/>
</linearGradient>
<line fill="none" stroke="url(#SVGID_4_)" stroke-width="14" stroke-linecap="round" stroke-miterlimit="10" x1="218.188" y1="428.839" x2="218.188" y2="545.839"/>
<circle fill="#FFFFFF" cx="1240.452" cy="100.229" r="9.706"/>
<linearGradient id="SVGID_5_" gradientUnits="userSpaceOnUse" x1="1240.4512" y1="132.8711" x2="1240.4512" y2="113.4609">
	<stop  offset="0" style="stop-color:#F48AD2"/>
	<stop  offset="0.375" style="stop-color:#FFFFFF;stop-opacity:0.3"/>
</linearGradient>
<circle fill="url(#SVGID_5_)" cx="1240.452" cy="123.166" r="9.706"/>
<linearGradient id="SVGID_6_" gradientUnits="userSpaceOnUse" x1="1240.4512" y1="154.8076" x2="1240.4512" y2="135.3975">
	<stop  offset="0" style="stop-color:#F48AD2"/>
	<stop  offset="0.375" style="stop-color:#FFFFFF;stop-opacity:0.3"/>
</linearGradient>
<circle fill="url(#SVGID_6_)" cx="1240.452" cy="145.102" r="9.706"/>
<linearGradient id="SVGID_7_" gradientUnits="userSpaceOnUse" x1="1230.6875" y1="81.3394" x2="1230.6875" y2="39.3394">
	<stop  offset="0.2" style="stop-color:#C52AD7;stop-opacity:0.1"/>
	<stop  offset="1" style="stop-color:#C227D9;stop-opacity:0.8"/>
</linearGradient>
<line fill="none" stroke="url(#SVGID_7_)" stroke-width="9" stroke-linecap="round" stroke-miterlimit="10" x1="1230.688" y1="43.839" x2="1230.688" y2="76.839"/>
<linearGradient id="SVGID_8_" gradientUnits="userSpaceOnUse" x1="1324.9473" y1="103.6089" x2="1252.2559" y2="13.8425">
	<stop  offset="0.2" style="stop-color:#C52AD7;stop-opacity:0.1"/>
	<stop  offset="1" style="stop-color:#F48AD2;stop-opacity:0.8"/>
</linearGradient>
<path fill="none" stroke="url(#SVGID_8_)" stroke-width="9" stroke-linecap="round" stroke-miterlimit="10" d="M1218.313,47.12
	l32.25-19.783c0,0,33.096-23.595,48.264-19.468c26.515,7.216,24.861,29.337,24.861,29.337v61.634"/>
<line fill="none" stroke="#F48AD2" stroke-linecap="round" stroke-miterlimit="10" x1="1387.851" y1="354.447" x2="1484.344" y2="297.343"/>
<line fill="none" stroke="#F48AD2" stroke-linecap="round" stroke-miterlimit="10" x1="1451.851" y1="382.447" x2="1548.344" y2="325.343"/>
<line fill="none" stroke="#FFFFFF" stroke-linecap="round" stroke-miterlimit="10" x1="270.688" y1="430.839" x2="270.688" y2="399.839"/>
<line fill="none" stroke="#FFFFFF" stroke-linecap="round" stroke-miterlimit="10" x1="245.688" y1="416.839" x2="245.688" y2="385.839"/>
</svg>
