<?xml version="1.0" encoding="utf-8"?>
<!-- Generator: Adobe Illustrator 16.0.0, SVG Export Plug-In . SVG Version: 6.00 Build 0)  -->
<!DOCTYPE svg PUBLIC "-//W3C//DTD SVG 1.1//EN" "http://www.w3.org/Graphics/SVG/1.1/DTD/svg11.dtd">
<svg version="1.1" id="Слой_1" xmlns="http://www.w3.org/2000/svg" xmlns:xlink="http://www.w3.org/1999/xlink" x="0px" y="0px"
	 width="680px" height="243px" viewBox="0 0 680 243" enable-background="new 0 0 680 243" xml:space="preserve">
<linearGradient id="SVGID_1_" gradientUnits="userSpaceOnUse" x1="320.9277" y1="214.3125" x2="627.7432" y2="214.3125">
	<stop  offset="0.2" style="stop-color:#C52AD7;stop-opacity:0.1"/>
	<stop  offset="1" style="stop-color:#C227D9;stop-opacity:0.8"/>
</linearGradient>
<path fill="url(#SVGID_1_)" d="M461.529,286.217c-1.842,0.354-4.701-0.699-4.701-0.699l-133.721-37.025c0,0-2.577-0.822-2.126-2.486
	c0.473-1.742,2.795-3.206,2.795-3.206l156.406-100.237c0,0,0.098-0.098,0.52-0.184c0.467-0.094,0.713,0,0.713,0l145.238,31.605
	c0,0,1.431,0.43,1.015,1.381c-0.292,0.666-1.679,1.316-1.679,1.316L465.266,284.945
	C465.266,284.945,463.342,285.869,461.529,286.217z"/>
<path fill="#FFFFFF" d="M461.529,218.582c-1.842,0.354-4.701-0.701-4.701-0.701l-133.721-37.023c0,0-2.577-0.823-2.126-2.487
	c0.473-1.742,2.795-3.206,2.795-3.206L480.182,74.927c0,0,0.098-0.098,0.52-0.183c0.467-0.096,0.713,0,0.713,0l145.238,31.604
	c0,0,1.431,0.431,1.015,1.381c-0.292,0.668-1.679,1.318-1.679,1.318L465.266,217.309
	C465.266,217.309,463.342,218.234,461.529,218.582z"/>
<linearGradient id="SVGID_2_" gradientUnits="userSpaceOnUse" x1="64.2617" y1="143.5381" x2="185.8594" y2="143.5381">
	<stop  offset="0.2" style="stop-color:#C52AD7;stop-opacity:0.1"/>
	<stop  offset="1" style="stop-color:#C227D9;stop-opacity:0.8"/>
</linearGradient>
<path fill="url(#SVGID_2_)" d="M122.914,173.205c-0.289,0.057-0.738-0.109-0.738-0.109l-57.572-16.41c0,0-0.405-0.129-0.333-0.391
	c0.074-0.273,0.438-0.503,0.438-0.503l61.406-41.897c0,0,0.015-0.016,0.082-0.029c0.073-0.014,0.112,0,0.112,0l59.38,15.561
	c0,0,0.225,0.066,0.16,0.217c-0.046,0.104-0.264,0.207-0.264,0.207L123.5,173.006C123.5,173.006,123.198,173.15,122.914,173.205z"/>
<linearGradient id="SVGID_3_" gradientUnits="userSpaceOnUse" x1="174.1143" y1="146.6777" x2="239.2754" y2="146.6777">
	<stop  offset="0.2" style="stop-color:#C52AD7;stop-opacity:0.1"/>
	<stop  offset="1" style="stop-color:#F48AD2;stop-opacity:0.8"/>
</linearGradient>
<path fill="url(#SVGID_3_)" d="M196.182,164.132c-0.289,0.055-0.738-0.11-0.738-0.11l-20.988-5.812c0,0-0.405-0.129-0.333-0.391
	c0.074-0.273,0.438-0.502,0.438-0.502l41.554-28.068c0,0,0.015-0.016,0.082-0.029c0.073-0.015,0.112,0,0.112,0l22.796,4.961
	c0,0,0.225,0.066,0.16,0.217c-0.046,0.104-0.264,0.207-0.264,0.207l-42.231,29.327C196.769,163.932,196.467,164.077,196.182,164.132
	z"/>
<path fill="#FFFFFF" d="M196.182,154.641c-0.289,0.055-0.738-0.11-0.738-0.11l-20.988-5.812c0,0-0.405-0.129-0.333-0.391
	c0.074-0.273,0.438-0.502,0.438-0.502l41.554-28.068c0,0,0.015-0.016,0.082-0.029c0.073-0.015,0.112,0,0.112,0l22.796,4.961
	c0,0,0.225,0.066,0.16,0.217c-0.046,0.104-0.264,0.207-0.264,0.207l-42.231,29.327C196.769,154.44,196.467,154.586,196.182,154.641z
	"/>
<linearGradient id="SVGID_4_" gradientUnits="userSpaceOnUse" x1="354.501" y1="163.9004" x2="415.9727" y2="163.9004">
	<stop  offset="0.2" style="stop-color:#C52AD7;stop-opacity:0.1"/>
	<stop  offset="1" style="stop-color:#F48AD2;stop-opacity:0.8"/>
</linearGradient>
<path fill="url(#SVGID_4_)" d="M382.672,178.307c-0.369,0.07-0.943-0.141-0.943-0.141l-26.79-7.418c0,0-0.517-0.164-0.427-0.498
	c0.096-0.35,0.561-0.643,0.561-0.643l31.336-20.082c0,0,0.02-0.02,0.104-0.037c0.094-0.019,0.143,0,0.143,0l29.1,6.332
	c0,0,0.286,0.086,0.203,0.277c-0.059,0.133-0.336,0.264-0.336,0.264l-32.201,21.69C383.42,178.052,383.034,178.236,382.672,178.307z
	"/>
<linearGradient id="SVGID_5_" gradientUnits="userSpaceOnUse" x1="449.6514" y1="88.1719" x2="511.1211" y2="88.1719">
	<stop  offset="0.2" style="stop-color:#C52AD7;stop-opacity:0.1"/>
	<stop  offset="1" style="stop-color:#F48AD2;stop-opacity:0.8"/>
</linearGradient>
<path fill="url(#SVGID_5_)" d="M477.82,102.578c-0.369,0.07-0.941-0.141-0.941-0.141l-26.791-7.418c0,0-0.517-0.164-0.426-0.498
	c0.094-0.35,0.56-0.643,0.56-0.643l31.336-20.082c0,0,0.02-0.02,0.104-0.037c0.094-0.019,0.143,0,0.143,0l29.098,6.332
	c0,0,0.287,0.086,0.203,0.277c-0.059,0.133-0.336,0.264-0.336,0.264l-32.2,21.69C478.569,102.323,478.184,102.508,477.82,102.578z"
	/>
<ellipse fill="#FFFFFF" cx="64.656" cy="156.443" rx="11.462" ry="6.507"/>
<linearGradient id="SVGID_6_" gradientUnits="userSpaceOnUse" x1="190.2617" y1="177.2461" x2="243.6821" y2="177.2461">
	<stop  offset="0.2" style="stop-color:#C52AD7;stop-opacity:0.1"/>
	<stop  offset="1" style="stop-color:#C227D9;stop-opacity:0.8"/>
</linearGradient>
<path fill="url(#SVGID_6_)" d="M211.663,190.939c-0.289,0.055-0.738-0.11-0.738-0.11l-20.322-6.144c0,0-0.405-0.129-0.333-0.391
	c0.074-0.273,0.438-0.503,0.438-0.503l30.479-20.214c0,0,0.015-0.015,0.082-0.028c0.073-0.015,0.112,0,0.112,0l22.129,5.293
	c0,0,0.225,0.067,0.16,0.217c-0.046,0.104-0.264,0.207-0.264,0.207l-31.157,21.473C212.25,190.739,211.948,190.885,211.663,190.939z
	"/>
<ellipse fill="#FFFFFF" cx="190.656" cy="184.443" rx="11.462" ry="6.507"/>
<linearGradient id="SVGID_7_" gradientUnits="userSpaceOnUse" x1="205.1934" y1="119.4443" x2="228.1182" y2="119.4443">
	<stop  offset="0.2" style="stop-color:#C52AD7;stop-opacity:0.1"/>
	<stop  offset="1" style="stop-color:#C227D9;stop-opacity:0.8"/>
</linearGradient>
<ellipse fill="url(#SVGID_7_)" cx="216.656" cy="119.443" rx="11.462" ry="6.507"/>
<line fill="none" stroke="#F48AD2" stroke-linecap="round" stroke-miterlimit="10" x1="443.083" y1="192.106" x2="527.494" y2="138.369"/>
<line fill="#FFFFFF" x1="96.771" y1="152.678" x2="137.977" y2="125.809"/>
<line fill="#FFFFFF" x1="110.585" y1="157.803" x2="137.977" y2="139.941"/>
<path fill="#FFFFFF" d="M473.82,89.158c-0.369,0.07-0.942-0.141-0.942-0.141l-26.79-7.418c0,0-0.518-0.165-0.427-0.498
	c0.095-0.35,0.56-0.643,0.56-0.643l31.336-20.082c0,0,0.02-0.02,0.104-0.037c0.094-0.02,0.143,0,0.143,0l29.099,6.332
	c0,0,0.287,0.086,0.203,0.276c-0.059,0.134-0.336,0.265-0.336,0.265l-32.201,21.689C474.568,88.902,474.184,89.088,473.82,89.158z"
	/>
<line fill="none" stroke="#F48AD2" stroke-linecap="round" stroke-miterlimit="10" x1="420.233" y1="187.338" x2="533" y2="115.5"/>
<path fill="none" stroke="#F48AD2" stroke-linecap="round" stroke-miterlimit="10" d="M462,76"/>
<line fill="none" stroke="#F48AD2" stroke-linecap="round" stroke-miterlimit="10" x1="484.074" y1="64.9" x2="484.523" y2="69.798"/>
<line fill="none" stroke="#F48AD2" stroke-linecap="round" stroke-miterlimit="10" x1="468.691" y1="78.432" x2="463.504" y2="81.88"/>
<line fill="none" stroke="#F48AD2" stroke-linecap="round" stroke-miterlimit="10" x1="474.164" y1="70.959" x2="468.977" y2="74.408"/>
<line fill="none" stroke="#F48AD2" stroke-linecap="round" stroke-miterlimit="10" x1="480.063" y1="72.684" x2="474.875" y2="76.132"/>
<line fill="none" stroke="#F48AD2" stroke-linecap="round" stroke-miterlimit="10" x1="480.063" y1="72.531" x2="474.164" y2="70.959"/>
<line fill="none" stroke="#F48AD2" stroke-linecap="round" stroke-miterlimit="10" x1="474.664" y1="76.132" x2="468.766" y2="74.56"/>
<line fill="none" stroke="#F48AD2" stroke-linecap="round" stroke-miterlimit="10" x1="489.762" y1="66.338" x2="478.887" y2="67.85"/>
</svg>
