<?xml version="1.0" encoding="utf-8"?>
<!-- Generator: Adobe Illustrator 16.0.0, SVG Export Plug-In . SVG Version: 6.00 Build 0)  -->
<!DOCTYPE svg PUBLIC "-//W3C//DTD SVG 1.1//EN" "http://www.w3.org/Graphics/SVG/1.1/DTD/svg11.dtd">
<svg version="1.1" id="Слой_1" xmlns="http://www.w3.org/2000/svg" xmlns:xlink="http://www.w3.org/1999/xlink" x="0px" y="0px"
	 width="680px" height="243px" viewBox="0 0 680 243" enable-background="new 0 0 680 243" xml:space="preserve">
<linearGradient id="SVGID_1_" gradientUnits="userSpaceOnUse" x1="181.5913" y1="276.6504" x2="181.5913" y2="118.3682">
	<stop  offset="0.2" style="stop-color:#C52AD7;stop-opacity:0.1"/>
	<stop  offset="1" style="stop-color:#C227D9;stop-opacity:0.8"/>
</linearGradient>
<path fill="url(#SVGID_1_)" d="M125.53,276.578c-1.842,0.354-4.702-0.699-4.702-0.699l-77.721-28.025c0,0-1.603-0.844-2.126-2.486
	c-1-3.138-1-7.867-1-7.867l190.2-118.906c0,0,0.099-0.098,0.521-0.184c0.467-0.094,0.713,0,0.713,0l90.74,22.833
	c0,0,0.719,0.351,0.813,1.549c0.236,3.04,0.383,5.807,0,7.327c-0.217,0.86-1.979,1.924-1.979,1.924L129.266,275.307
	C129.266,275.307,127.342,276.23,125.53,276.578z"/>
<path fill="#FFFFFF" d="M125.53,268.248c-1.842,0.354-4.702-0.699-4.702-0.699l-78.721-28.025c0,0-2.577-0.822-2.126-2.486
	c0.473-1.742,2.795-3.206,2.795-3.206l187.405-115.237c0,0,0.099-0.098,0.521-0.184c0.467-0.094,0.713,0,0.713,0l90.238,22.605
	c0,0,1.431,0.43,1.015,1.381c-0.292,0.666-1.679,1.316-1.679,1.316L129.266,266.977C129.266,266.977,127.342,267.9,125.53,268.248z"
	/>
<linearGradient id="SVGID_2_" gradientUnits="userSpaceOnUse" x1="210.7456" y1="138.0645" x2="322.7432" y2="138.0645">
	<stop  offset="0" style="stop-color:#F48AD2;stop-opacity:0"/>
	<stop  offset="1" style="stop-color:#C227D9"/>
</linearGradient>
<path fill="url(#SVGID_2_)" d="M297.451,157.689c-1.842,0.354-4.702-0.7-4.702-0.7l-79.818-23.005c0,0-2.61-0.832-2.126-2.487
	c0.424-1.45,2.539-2.694,2.539-2.694l16.837-10.209c0,0,0.099-0.098,0.521-0.184c0.467-0.094,0.713,0,0.713,0l90.238,22.563
	c0,0,1.431,0.472,1.015,1.423c-0.292,0.666-1.583,1.313-1.583,1.313l-19.896,12.708
	C301.188,156.417,299.264,157.342,297.451,157.689z"/>
<linearGradient id="SVGID_3_" gradientUnits="userSpaceOnUse" x1="154.0762" y1="243.7646" x2="39.9282" y2="243.7647">
	<stop  offset="0.2" style="stop-color:#C52AD7;stop-opacity:0.1"/>
	<stop  offset="1" style="stop-color:#F48AD2;stop-opacity:0.8"/>
</linearGradient>
<path fill="url(#SVGID_3_)" d="M125.93,268.248c-1.842,0.354-4.702-0.7-4.702-0.7l-79.114-27.994c0,0-2.61-0.832-2.126-2.487
	c0.424-1.45,2.489-3.031,2.489-3.031l23.79-14.602c0,0,0.099-0.098,0.521-0.184c0.467-0.094,0.713,0,0.713,0l85.485,30.182
	c0,0,1.431,0.472,1.015,1.422c-0.292,0.668-1.583,1.313-1.583,1.313l-22.75,14.809C129.667,266.976,127.743,267.9,125.93,268.248z"
	/>
<ellipse fill="#FFFFFF" cx="96.656" cy="242.443" rx="11.462" ry="6.507"/>
<linearGradient id="SVGID_4_" gradientUnits="userSpaceOnUse" x1="498.5918" y1="48.7012" x2="498.5918" y2="206.9844">
	<stop  offset="0.2" style="stop-color:#C52AD7;stop-opacity:0.1"/>
	<stop  offset="1" style="stop-color:#F48AD2;stop-opacity:0.8"/>
</linearGradient>
<path fill="url(#SVGID_4_)" d="M442.529,206.912c-1.842,0.354-4.701-0.701-4.701-0.701l-77.721-28.023c0,0-1.604-0.845-2.127-2.487
	c-1-3.138-1-7.866-1-7.866L547.182,48.927c0,0,0.098-0.098,0.52-0.183c0.467-0.096,0.713,0,0.713,0l90.74,22.832
	c0,0,0.719,0.35,0.813,1.549c0.236,3.04,0.383,5.807,0,7.328c-0.217,0.859-1.979,1.924-1.979,1.924L446.266,205.639
	C446.266,205.639,444.342,206.564,442.529,206.912z"/>
<linearGradient id="SVGID_5_" gradientUnits="userSpaceOnUse" x1="356.9277" y1="123.6777" x2="639.7432" y2="123.6777">
	<stop  offset="0.2" style="stop-color:#C52AD7;stop-opacity:0.1"/>
	<stop  offset="1" style="stop-color:#C227D9;stop-opacity:0.8"/>
</linearGradient>
<path fill="url(#SVGID_5_)" d="M442.529,198.582c-1.842,0.354-4.701-0.701-4.701-0.701l-78.721-28.023c0,0-2.578-0.823-2.127-2.487
	c0.473-1.742,2.795-3.206,2.795-3.206L547.182,48.927c0,0,0.098-0.098,0.52-0.183c0.467-0.096,0.713,0,0.713,0l90.238,22.604
	c0,0,1.431,0.431,1.015,1.381c-0.292,0.668-1.679,1.318-1.679,1.318L446.266,197.309
	C446.266,197.309,444.342,198.234,442.529,198.582z"/>
<path fill="#FFFFFF" d="M614.763,88.979l-90.124-26.19l5.76-3.542l16.783-10.319c0,0,0.098-0.098,0.52-0.183
	c0.467-0.096,0.713,0,0.713,0l90.238,22.563c0,0,1.431,0.472,1.015,1.422c-0.292,0.668-1.583,1.313-1.583,1.313L618.188,86.75
	L614.763,88.979z"/>
<linearGradient id="SVGID_6_" gradientUnits="userSpaceOnUse" x1="129.667" y1="162.5635" x2="241.6641" y2="162.5635">
	<stop  offset="0.2" style="stop-color:#C52AD7;stop-opacity:0.1"/>
	<stop  offset="1" style="stop-color:#C227D9;stop-opacity:0.8"/>
</linearGradient>
<path fill="url(#SVGID_6_)" d="M217.373,182.188c-1.842,0.354-4.702-0.699-4.702-0.699l-80.818-22.006c0,0-2.61-0.832-2.126-2.486
	c0.424-1.451,2.539-2.695,2.539-2.695l19.837-11.209c0,0,0.099-0.098,0.521-0.183c0.467-0.095,0.713,0,0.713,0l87.237,23.563
	c0,0,1.431,0.471,1.015,1.422c-0.292,0.667-1.583,1.313-1.583,1.313l-18.896,11.709C221.109,180.916,219.185,181.84,217.373,182.188
	z"/>
<path fill="#FFFFFF" d="M217.373,168.568c-1.842,0.354-4.702-0.7-4.702-0.7l-79.818-22.005c0,0-2.61-0.832-2.126-2.487
	c0.424-1.45,2.539-2.694,2.539-2.694l19.837-10.209c0,0,0.099-0.098,0.521-0.184c0.467-0.094,0.713,0,0.713,0l86.237,22.563
	c0,0,1.431,0.472,1.015,1.423c-0.292,0.666-1.583,1.313-1.583,1.313l-18.896,11.708
	C221.109,167.296,219.185,168.221,217.373,168.568z"/>
<path fill="#FFFFFF" d="M442.93,198.581c-1.842,0.354-4.701-0.7-4.701-0.7l-79.114-27.994c0,0-2.61-0.832-2.126-2.486
	c0.424-1.451,2.488-3.031,2.488-3.031l23.79-14.603c0,0,0.099-0.098,0.521-0.183c0.467-0.096,0.713,0,0.713,0l85.485,30.181
	c0,0,1.431,0.472,1.015,1.423c-0.291,0.666-1.583,1.313-1.583,1.313l-22.751,14.809C446.666,197.309,444.742,198.233,442.93,198.581
	z"/>
<ellipse fill="none" stroke="#F48AD2" stroke-linecap="round" stroke-miterlimit="10" cx="412.656" cy="172.443" rx="11.462" ry="6.507"/>
<line fill="none" stroke="#F48AD2" stroke-linecap="round" stroke-miterlimit="10" x1="572.51" y1="66.18" x2="591.871" y2="71.5"/>
</svg>
